<?xml version="1.0" encoding="utf-8"?>
<svg viewBox="61.494 73.655 293.18 337.246" xmlns="http://www.w3.org/2000/svg" xmlnsBx="https://boxy-svg.com">
  <ellipse style="stroke: rgb(0, 0, 0); paint-order: fill; stroke-opacity: 0; fill: rgb(237, 222, 170);" cx="231.837" cy="145.207" rx="55.472" ry="60.004"/>
  <ellipse style="stroke: rgb(0, 0, 0); paint-order: fill; stroke-opacity: 0; fill: rgb(237, 222, 170);" cx="248.301" cy="180.194" rx="55.472" ry="39.652" transform="matrix(1, 0, 0.050563, 1, -24.326248, -14.894397)"/>
  <rect style="stroke: rgb(0, 0, 0); fill: rgb(237, 222, 170); stroke-opacity: 0;" x="-337.155" y="-89.249" width="18.957" height="28.954" rx="15" ry="15" transform="matrix(0, 1, -1, 0, 124.212219, 549.745728)"/>
  <rect style="stroke: rgb(0, 0, 0); fill: rgb(237, 222, 170); stroke-opacity: 0;" x="149.778" y="216.317" width="14.7" height="92.147" rx="15" ry="15" transform="matrix(0.707107, 0.707107, -0.707107, 0.707107, 239.837769, -48.716686)"/>
  <path style="stroke: rgb(0, 0, 0); fill: rgb(237, 222, 170); stroke-opacity: 0;" d="M 248.652 320.126 H 248.652 A 10.17 15 0 0 1 258.822 335.126 V 382.185 A 5 5 0 0 1 253.822 387.185 H 243.482 A 5 5 0 0 1 238.482 382.185 V 335.126 A 10.17 15 0 0 1 248.652 320.126 Z" bxShape="rect 238.482 320.126 20.34 67.059 15 15 5 5 1@116a2f21"/>
  <path style="stroke: rgb(0, 0, 0); fill: rgb(237, 222, 170); stroke-opacity: 0;" d="M 210.471 320.634 H 210.471 A 10.17 15 0 0 1 220.641 335.634 V 382.693 A 5 5 0 0 1 215.641 387.693 H 205.301 A 5 5 0 0 1 200.301 382.693 V 335.634 A 10.17 15 0 0 1 210.471 320.634 Z" bxShape="rect 200.301 320.634 20.34 67.059 15 15 5 5 1@778d4248"/>
  <rect x="213.226" y="197.748" width="32.58" height="17.923" style="stroke: rgb(0, 0, 0); fill: rgb(237, 222, 170); stroke-opacity: 0;"/>
  <rect style="stroke: rgb(0, 0, 0); fill: rgb(237, 222, 170); stroke-opacity: 0;" x="189.717" y="212.571" width="81.284" height="120.652" rx="15" ry="15"/>
  <rect x="196.667" y="212.382" width="16.626" height="71.363" style="stroke: rgb(0, 0, 0); stroke-opacity: 0; fill: rgb(219, 137, 55);"/>
  <rect style="stroke: rgb(0, 0, 0); stroke-opacity: 0; fill: rgb(219, 137, 55);" x="189.7" y="279.401" width="81.3" height="55.135" rx="0" ry="0"/>
  <path style="stroke: rgb(0, 0, 0); stroke-opacity: 0; fill: rgb(219, 137, 55);" d="M 211.373 254.732 C 211.373 265.659 222.443 269.794 226.743 278.361 C 227.841 280.549 229.741 286.143 228.466 288.691 C 226.763 292.097 217.376 290.649 215.32 288.031 C 208.374 279.188 206.844 273.964 206.844 262.79"/>
  <path style="stroke: rgb(0, 0, 0); fill: rgb(219, 137, 55); stroke-opacity: 0;" d="M 197.257 264.775 C 197.257 268.452 197.704 272.638 196.697 275.954 C 195.725 279.155 188.256 279.371 190.744 284.276 C 191.904 286.563 199.555 285.933 201.236 284.252 C 205.92 279.568 202.793 274.259 198.935 270.341"/>
  <path d="M 198.836 -349.948 L 207.927 -334.399 L 189.745 -334.399 L 198.836 -349.948 Z" style="stroke: rgb(255, 255, 255); stroke-opacity: 0; fill: rgb(219, 137, 55);" transform="matrix(1, 0, 0, -1, 0, 0)" bxShape="triangle 189.745 -349.948 18.182 15.549 0.5 0 1@11941570"/>
  <path d="M -191.087 265.521 L -181.996 277.318 L -200.178 277.318 L -191.087 265.521 Z" style="stroke: rgb(255, 255, 255); stroke-opacity: 0; fill: rgb(219, 137, 55);" transform="matrix(1, 0, 0.0001, -1, 400.329013, 611.735102)" bxShape="triangle -200.178 265.521 18.182 11.797 0.5 0 1@7caf30f0"/>
  <path d="M 216.937 -350.982 L 224.402 -333.056 L 209.471 -333.056 L 216.937 -350.982 Z" style="stroke: rgb(255, 255, 255); stroke-opacity: 0; fill: rgb(219, 137, 55);" transform="matrix(1, 0, 0, -1, 0, 0)" bxShape="triangle 209.471 -350.982 14.931 17.926 0.5 0 1@5b277ee2"/>
  <path d="M 223.614 -341.858 L 232.705 -326.309 L 214.523 -326.309 L 223.614 -341.858 Z" style="stroke: rgb(255, 255, 255); stroke-opacity: 0; fill: rgb(219, 137, 55);" transform="matrix(1, 0, 0, -1, 0, 0)" bxShape="triangle 214.523 -341.858 18.182 15.549 0.5 0 1@af86b34c"/>
  <path d="M 233.843 -349.86 L 242.934 -334.311 L 224.752 -334.311 L 233.843 -349.86 Z" style="stroke: rgb(255, 255, 255); stroke-opacity: 0; fill: rgb(219, 137, 55);" transform="matrix(1, 0, 0, -1, 0, 0)" bxShape="triangle 224.752 -349.86 18.182 15.549 0.5 0 1@9a2052b2"/>
  <path d="M 241.004 -346.49 L 249.051 -334.021 L 232.957 -334.021 L 241.004 -346.49 Z" style="stroke: rgb(255, 255, 255); stroke-opacity: 0; fill: rgb(219, 137, 55);" transform="matrix(1, 0, 0, -1, 0, 0)" bxShape="triangle 232.957 -346.49 16.094 12.469 0.5 0 1@b4fb953f"/>
  <path d="M 264.774 -347.714 L 270.946 -334.039 L 258.601 -334.039 L 264.774 -347.714 Z" style="stroke: rgb(255, 255, 255); stroke-opacity: 0; fill: rgb(219, 137, 55);" transform="matrix(1, 0, 0, -1, 0, 0)" bxShape="triangle 258.601 -347.714 12.345 13.675 0.5 0 1@1a9ca405"/>
  <path d="M 254.059 -345.122 L 263.15 -329.573 L 244.968 -329.573 L 254.059 -345.122 Z" style="stroke: rgb(255, 255, 255); stroke-opacity: 0; fill: rgb(219, 137, 55);" transform="matrix(1, 0, 0, -1, 0, 0)" bxShape="triangle 244.968 -345.122 18.182 15.549 0.5 0 1@c868410a"/>
  <path style="stroke: rgb(0, 0, 0); fill: rgb(237, 222, 170); stroke-opacity: 0;" d="M 251.631 375.917 H 259.789 A 15 7.099 0 0 1 274.789 383.016 V 385.115 A 5 5 0 0 1 269.789 390.115 H 241.631 A 5 5 0 0 1 236.631 385.115 V 383.016 A 15 7.099 0 0 1 251.631 375.917 Z" bxShape="rect 236.631 375.917 38.158 14.198 15 15 5 5 1@91860982"/>
  <path style="stroke: rgb(0, 0, 0); fill: rgb(237, 222, 170); stroke-opacity: 0;" d="M 198.57 375.795 H 206.728 A 15 7.099 0 0 1 221.728 382.894 V 384.993 A 5 5 0 0 1 216.728 389.993 H 188.57 A 5 5 0 0 1 183.57 384.993 V 382.894 A 15 7.099 0 0 1 198.57 375.795 Z" bxShape="rect 183.57 375.795 38.158 14.198 15 15 5 5 1@57626d2b"/>
  <path style="stroke: rgb(0, 0, 0); stroke-opacity: 0; fill: rgb(86, 63, 41);" d="M 251.232 84.942 C 253.977 84.79 257.041 84.56 259.763 84.861 C 263.846 85.314 267.776 87.168 271.514 88.723 C 279.821 92.18 290.95 96.508 292.032 106.703 C 292.369 109.876 294.175 117.517 291.315 119.662 C 289.714 120.863 286.036 120.671 284.173 120.671 C 275.207 120.671 269.229 115.707 260.713 113.108 C 258.367 112.392 253.061 110.762 250.62 111.977 C 248.191 113.187 246.071 115.695 244.082 117.484 C 240.863 120.38 236.394 122.316 232.388 123.818 C 228.351 125.332 224.762 121.276 220.351 121.786 C 216.306 122.254 213.113 126.103 209.697 127.811 C 208.866 128.227 207.028 127.422 205.794 127.552 C 203.036 127.842 200.347 129.105 197.866 130.221 C 194.81 131.595 189.746 132.638 187.291 134.936 C 185.531 136.582 186.889 142.938 182.324 141.328 C 180.353 140.633 180.303 135.974 178.026 134.818 C 175.482 133.528 168.837 137.265 167.075 133.691 C 165.375 130.24 167.074 125.247 169.954 122.928 C 170.031 122.866 169.9 120.98 170.031 120.163 C 170.452 117.532 171.511 114.792 172.575 112.361 C 175.307 106.121 180.663 99.463 186.295 96.049 C 188.454 94.74 192.416 91.366 194.656 90.802 C 196.546 90.326 197.212 89.601 199.902 88.256 C 201.951 87.231 204.716 87.027 206.871 86.37 C 215.327 83.788 224.027 80.533 233.92 82.163 C 238.881 82.98 244.161 84.399 249.019 84.399"/>
  <path style="stroke: rgb(0, 0, 0); stroke-opacity: 0; fill: rgb(86, 63, 41);" d="M 167.248 127.968 C 167.248 134.061 165.779 139.956 164.712 145.903 C 164.214 148.679 166.58 147.164 166.904 148.897 C 167.103 149.956 166.97 151.31 166.592 152.272 C 166.558 152.359 165.977 153.385 165.929 153.338 C 165.753 153.168 168.083 152.421 168.181 152.387 C 169.645 151.893 170.84 151.206 171.855 150.015 C 173.717 147.829 174.443 144.832 175.314 142.17 C 175.831 140.59 177.033 140.129 177.917 138.937 C 178.251 138.488 179.493 135.909 180.017 135.909"/>
  <ellipse style="stroke: rgb(0, 0, 0); paint-order: fill; stroke-opacity: 0; fill: rgb(237, 222, 170);" cx="248.301" cy="180.194" rx="12.985" ry="17.837" transform="matrix(1, 0, 0.050563, 1, -79.530998, -27.406967)"/>
  <path style="stroke: rgb(0, 0, 0); stroke-opacity: 0; fill: rgb(86, 63, 41);" d="M 191.688 132.3 C 191.688 135.096 191.688 137.891 191.688 140.686 C 191.688 142.558 192.062 144.475 192.308 146.309 C 192.412 147.081 192.923 149.539 192.522 150.341 C 192.291 150.803 191.524 150.727 191.089 150.859 C 189.249 151.418 187.159 151.452 185.934 149.322 C 183.837 145.678 183.971 141.76 184.566 137.804 C 184.747 136.603 185.206 132.237 187.088 132.237"/>
  <path style="stroke: rgb(0, 0, 0); fill: rgb(86, 63, 41); stroke-opacity: 0;" d="M 192.241 150.321 C 195.043 152.873 198.126 154.981 201.626 156.535 C 202.777 157.046 205.101 157.174 206.021 157.988 C 207.491 159.289 209.733 159.977 211.508 161.42 C 213.016 162.644 214.513 164.53 216.417 165.157 C 222.372 167.117 230.459 168.872 237.067 169.403 C 239.816 169.624 243.78 169.606 246.254 170.82 C 246.827 171.101 247.812 170.733 248.46 170.82 C 250.747 171.128 253.19 170.531 255.464 170.915 C 257.047 171.183 258.655 171.786 260.227 171.953 C 265.052 172.465 270.751 172.793 275.551 172.073 C 279.903 171.42 283.154 169.028 286.691 173.058 C 288.326 174.922 287.723 177.496 287.16 179.579 C 286.787 180.96 286.629 182.521 286.037 183.821 C 285.407 185.204 283.404 185.937 282.44 187.068 C 280.139 189.771 277.536 191.108 274.736 193.393 C 273.127 194.707 271.504 197.042 269.693 198.021 C 265.213 200.442 260.319 200.681 255.411 202.006 C 252.537 202.781 249.003 205.478 245.993 205.42 C 245.811 205.416 245.828 205.048 245.656 204.99 C 244.27 204.519 242.129 205.113 240.689 205.113 C 237.139 205.113 233.663 204.955 230.118 204.955 C 225.432 204.955 220.228 206.232 215.535 205.444 C 211.753 204.808 208.489 201.869 205.019 200.514 C 201.664 199.204 198.624 197.202 195.777 194.988 C 194.572 194.051 192.873 193.472 191.536 192.736 C 189.149 191.419 186.646 187.264 185.517 184.997 C 184.795 183.546 185.071 181.627 185.071 180.024 C 185.071 175.305 185.889 171.919 187.02 167.437 C 187.605 165.119 187.998 160.37 186.929 158.192 C 186.048 156.395 187.472 152.413 187.472 150.283"/>
  <path style="stroke: rgb(0, 0, 0); fill: rgb(86, 63, 41); stroke-opacity: 0;" d="M 277.686 172.518 C 278.747 172.202 279.634 171.993 280.608 171.506 C 281.445 171.087 281.765 169.959 282.581 169.551 C 283.277 169.203 286.342 169.552 287.181 169.706 C 288.271 169.906 288.564 171.695 288.645 172.516 C 288.899 175.096 288.571 177.679 287.738 180.176 C 287.513 180.852 288.077 182.932 287.658 183.351 C 287.433 183.576 286.784 183.284 286.579 183.733 C 286.376 184.18 286.803 184.932 286.337 185.244 C 285.763 185.626 285.059 185.442 284.525 186.052 C 283.905 186.761 283.307 188.681 282.485 189.092 C 282.234 189.218 281.57 188.647 281.107 188.878 C 280.903 188.98 279.898 189.989 279.889 189.984 C 279.451 189.763 279.105 189.174 278.541 189.35 C 277.845 189.568 277.833 193.819 277.423 194.432 C 277.316 194.594 276.926 193.78 276.612 193.859 C 275.95 194.024 275.755 194.931 275.189 195.214 C 275.069 195.274 274.233 194.79 273.876 194.92 C 271.259 195.869 269.753 199.253 267.273 200.493 C 267.081 200.589 265.792 199.94 265.196 200.139 C 264.662 200.317 263.529 201.422 262.991 201.285 C 262.427 201.141 262.13 200.731 261.498 200.62 C 261.157 200.56 260.621 201.06 260.468 200.75 C 260.179 200.168 260.435 198.849 260.435 198.216 C 260.435 194.742 261.185 194.289 263.154 192.001 C 265.414 189.376 267.279 186.315 269.296 183.28 C 270.521 181.435 273.359 179.445 273.359 176.921"/>
  <path style="stroke: rgb(0, 0, 0); fill: rgb(237, 222, 170); stroke-opacity: 0;" d="M 264.593 179.001 C 266.573 179.976 269.618 180.191 271.066 181.992 C 271.76 182.855 271.017 183.698 270.814 184.579 C 270.395 186.394 269.588 188.692 268.033 189.823 C 264.839 192.147 258.354 191.543 254.653 191.543 C 253.248 191.543 251.32 191.867 249.984 191.414 C 248.552 190.927 246.476 186.486 247.551 185.096 C 248.173 184.291 249.642 184.668 250.184 183.86 C 251.19 182.36 251.33 179.962 253.363 179.962"/>
  <path style="stroke: rgb(0, 0, 0); fill: rgb(86, 63, 41); stroke-opacity: 0;" d="M 248.013 133.296 C 250.812 133.683 253.881 134.439 256.755 134.012 C 257.77 133.861 258.885 133.166 259.923 133.361 C 261.044 133.572 262.009 134.225 263.174 134.225 C 265.833 134.225 270.839 133.551 272.975 135.021 C 273.68 135.505 275.364 134.793 275.966 134.591 C 276.607 134.376 277.756 134.755 278.348 134.95 C 280.852 135.774 284.458 134.198 285.103 138.252 C 285.508 140.793 281.801 139.467 280.411 139.939 C 276.022 141.426 269.246 141.1 265.107 138.991 C 264.479 138.671 263.422 139.171 262.799 139.237 C 260.745 139.456 258.738 139.429 256.688 139.741 C 254.898 140.014 253.377 139.566 251.657 139.272 C 249.122 138.839 246.469 138.948 243.932 138.514 C 243.142 138.379 238.032 136.734 238.624 135.549 C 238.76 135.278 239.644 135.248 239.932 135.104 C 240.443 134.848 240.746 134.165 241.28 133.898 C 242.608 133.234 243.586 134.366 244.873 133.079"/>
  <ellipse style="stroke: rgb(0, 0, 0); stroke-opacity: 0; fill: rgb(255, 255, 255);" cx="246.752" cy="146.784" rx="6.802" ry="6.216"/>
  <ellipse style="stroke: rgb(0, 0, 0); stroke-opacity: 0; fill: rgb(255, 255, 255);" cx="278.509" cy="147.498" rx="6.802" ry="6.216"/>
  <ellipse style="stroke: rgb(0, 0, 0); stroke-opacity: 0;" cx="249.969" cy="147.1" rx="1.731" ry="1.935"/>
  <ellipse style="stroke: rgb(0, 0, 0); stroke-opacity: 0;" cx="281.878" cy="148.021" rx="1.731" ry="1.935"/>
  <ellipse style="stroke: rgb(0, 0, 0); stroke-opacity: 0; fill: rgb(234, 176, 176);" cx="251.171" cy="240.818" rx="1.869" ry="1.899"/>
  <path style="fill: rgb(216, 216, 216); fill-opacity: 0; stroke-width: 2px; stroke-linecap: round; stroke: rgb(0, 0, 0);" d="M 264.33 153.268 C 265.383 154.5 267.103 155.124 268.258 156.275 C 269.484 157.498 269.559 158.947 270.179 160.423 C 270.51 161.211 270.951 162.634 270.717 163.508 C 270.123 165.729 268.498 166.703 266.324 167.246 C 265.542 167.442 264.844 167.885 264.003 167.744 C 262.946 167.568 261.626 167.188 260.658 166.811 C 260.314 166.677 260.106 166.32 259.755 166.212 C 258.917 165.954 257.963 165.659 257.372 165.06"/>
  <path style="stroke: rgb(0, 0, 0); fill: rgb(119, 85, 49); stroke-opacity: 0;" d="M 204.869 218.041 C 206.034 217.849 206.816 218.085 207.63 218.897 C 208.263 219.529 209.381 220.082 209.745 220.949 C 210.277 222.217 209.726 223.375 209.391 224.629 C 209.135 225.591 209.21 226.929 209.293 227.919 C 209.49 230.283 212.039 233.976 208.563 234.958 C 208.086 235.093 207.554 235.247 207.062 235.299 C 206.103 235.4 204.46 235.797 203.487 235.472 C 200.173 234.363 200.571 230.051 200.038 227.422 C 199.815 226.321 199.314 225.349 199.314 224.215 C 199.314 222.385 201.284 221.586 202.462 220.408 C 202.84 220.031 203.256 219.706 203.666 219.36 C 203.862 219.195 204.197 218.891 204.197 218.955 Z M 209.414 278.667 C 209.997 278.521 210.778 278.469 211.459 278.667 C 212.215 278.886 213.107 279.425 213.723 280.054 C 214.358 280.704 214.89 281.633 215.183 282.537 C 215.481 283.456 214.729 285.007 215.475 285.531 C 216.518 286.264 220.816 284.621 222.412 284.946 C 223.498 285.168 224.087 285.672 224.676 286.334 C 225.3 287.035 225.741 288.082 225.99 289.109 C 226.257 290.209 226.547 291.491 226.136 292.76 C 225.633 294.313 223.732 296.453 222.558 297.652 C 221.621 298.609 220.907 299.063 219.783 299.697 C 218.455 300.445 216.33 301.268 214.964 301.741 C 213.89 302.113 213.175 302.346 212.189 302.471 C 211.139 302.605 209.818 302.73 208.83 302.471 C 207.914 302.231 206.971 301.694 206.421 301.084 C 205.917 300.526 205.694 299.775 205.544 299.039 C 205.388 298.271 205.442 297.349 205.544 296.557 C 205.643 295.793 206.214 295.192 206.128 294.366 C 206.022 293.345 204.807 292.021 204.522 290.861 C 204.257 289.783 204.287 288.743 204.376 287.648 C 204.469 286.506 204.74 285.187 205.106 284.143 C 205.441 283.187 206.059 282.003 206.421 281.588 C 206.612 281.367 206.74 281.494 206.932 281.295 C 207.259 280.957 207.644 279.842 208.1 279.397 C 208.49 279.017 208.899 278.796 209.414 278.667 Z M 251.296 283.841 C 252.124 283.799 253.487 284.637 254.655 284.717 C 255.869 284.8 257.234 284.108 258.452 284.279 C 259.668 284.45 260.911 285.487 261.957 285.739 C 262.819 285.947 263.57 285.604 264.294 285.885 C 265.061 286.184 265.807 286.676 266.412 287.565 C 267.228 288.766 268.043 291.516 268.31 292.968 C 268.506 294.032 268.49 294.721 268.31 295.597 C 268.121 296.522 267.666 297.532 267.142 298.372 C 266.619 299.211 265.963 299.999 265.17 300.636 C 264.344 301.299 263.346 301.943 262.249 302.242 C 261.076 302.562 259.676 302.692 258.306 302.388 C 256.747 302.042 254.234 301.029 253.414 299.978 C 252.772 299.156 252.844 298.024 252.976 297.058 C 253.113 296.051 254.644 294.795 254.29 294.064 C 253.886 293.229 251.086 293.152 249.982 292.603 C 249.125 292.178 248.437 291.862 248.01 291.216 C 247.564 290.541 247.239 289.559 247.426 288.587 C 247.663 287.354 249.215 285.149 249.982 284.425 C 250.452 283.981 250.714 283.87 251.296 283.841 Z M 195.527 302.142 C 196.353 302.031 198.179 302.056 199.324 302.434 C 200.436 302.802 201.896 303.914 202.318 304.333 C 202.509 304.523 202.456 304.657 202.537 304.771 C 202.604 304.866 202.634 304.834 202.756 304.99 C 203.084 305.41 204.325 306.978 204.801 308.057 C 205.26 309.099 204.962 310.575 205.604 311.343 C 206.237 312.1 208.181 312.363 208.598 312.657 C 208.771 312.78 208.699 312.752 208.817 312.949 C 209.123 313.463 210.218 315.036 210.642 316.527 C 211.174 318.395 211.584 321.669 211.372 323.537 C 211.208 324.988 210.656 326.101 210.058 327.042 C 209.527 327.879 209.005 328.305 208.087 329.014 C 206.826 329.987 204.44 331.647 202.829 332.227 C 201.518 332.698 200.397 332.848 199.178 332.665 C 197.89 332.472 196.119 331.697 195.308 330.985 C 194.687 330.441 194.474 329.878 194.286 329.087 C 194.053 328.111 194.03 326.878 194.286 325.436 C 194.622 323.538 196.861 319.933 196.622 318.572 C 196.475 317.732 195.516 317.8 195.016 317.112 C 194.374 316.227 193.601 315.078 193.263 313.46 C 192.8 311.243 192.817 306.357 193.263 304.552 C 193.524 303.496 194.066 302.973 194.505 302.58 C 194.831 302.288 195.022 302.21 195.527 302.142 Z M 235.025 305.846 C 236.046 305.756 237.077 305.732 237.8 305.992 C 238.403 306.21 238.861 306.571 239.188 307.088 C 239.557 307.672 239.771 308.515 239.772 309.424 C 239.773 310.542 238.449 312.291 238.896 313.367 C 239.371 314.515 242.345 315.613 242.839 315.996 C 243.004 316.125 242.928 316.044 243.058 316.215 C 243.461 316.748 245.195 318.982 245.906 320.67 C 246.668 322.48 247.162 325.201 247.366 326.803 C 247.513 327.957 247.636 328.722 247.366 329.578 C 247.089 330.454 246.603 331.308 245.686 331.988 C 244.479 332.883 241.224 333.284 240.21 334.032 C 239.585 334.494 239.835 335.067 239.261 335.493 C 238.433 336.106 236.291 337.043 235.171 336.953 C 234.252 336.88 233.36 336.247 232.908 335.566 C 232.445 334.869 232.285 333.843 232.47 332.791 C 232.706 331.442 234.507 329.245 234.806 328.118 C 234.993 327.415 234.904 327.091 234.806 326.511 C 234.693 325.841 234.442 324.951 234.076 324.321 C 233.726 323.718 232.942 323.056 232.689 322.787 C 232.57 322.661 232.619 322.691 232.47 322.568 C 232.082 322.249 230.849 321.025 229.768 320.597 C 228.576 320.124 226.605 320.321 225.533 320.012 C 224.738 319.783 224.152 319.648 223.707 319.136 C 223.208 318.561 222.858 317.379 222.831 316.58 C 222.807 315.855 223.025 315.306 223.415 314.536 C 223.939 313.502 225.4 311.635 226.044 310.958 C 226.412 310.571 226.706 310.516 226.92 310.301 C 227.092 310.128 227.178 309.918 227.285 309.789 C 227.366 309.693 227.382 309.681 227.504 309.57 C 227.747 309.352 228.578 308.763 228.819 308.475 C 228.964 308.301 228.866 308.212 229.038 308.037 C 229.364 307.704 230.225 307.071 231.082 306.723 C 232.133 306.296 233.84 305.951 235.025 305.846 Z M 263.737 303.331 C 264.197 303.24 264.819 303.171 265.344 303.331 C 265.917 303.506 266.645 303.847 267.023 304.426 C 267.467 305.106 267.545 306.152 267.607 307.347 C 267.689 308.914 266.904 311.692 267.169 313.189 C 267.371 314.325 268.236 314.852 268.484 315.818 C 268.745 316.837 268.725 318.062 268.63 319.177 C 268.533 320.301 267.623 321.817 267.9 322.536 C 268.116 323.098 269.103 322.965 269.506 323.485 C 269.983 324.1 270.479 325.35 270.382 326.187 C 270.288 327.001 269.651 328.002 268.995 328.45 C 268.353 328.89 267.424 329.086 266.512 328.888 C 265.357 328.638 263.418 327.317 262.642 326.479 C 262.074 325.865 261.927 325.355 261.766 324.58 C 261.568 323.627 261.674 322.269 261.766 321.075 C 261.861 319.837 262.515 318.391 262.35 317.278 C 262.202 316.278 261.299 315.769 261.036 314.649 C 260.696 313.205 260.765 310.762 260.89 309.1 C 260.999 307.641 261.223 306.08 261.62 305.157 C 261.905 304.491 262.325 304.075 262.715 303.769 C 263.039 303.515 263.34 303.41 263.737 303.331 Z M 205.536 253.422 C 206.137 253.326 206.929 253.478 207.462 253.698 C 207.94 253.894 208.218 254.01 208.632 254.592 C 209.379 255.642 210.723 258.646 211.11 260.51 C 211.451 262.154 210.898 263.877 211.11 265.19 C 211.286 266.277 211.928 267.131 212.073 267.943 C 212.192 268.611 212.234 269.159 212.073 269.732 C 211.905 270.331 211.484 271.024 211.041 271.452 C 210.624 271.856 210.181 272.107 209.527 272.278 C 208.678 272.5 207.265 272.654 206.224 272.416 C 205.177 272.176 203.922 271.509 203.265 270.833 C 202.702 270.254 202.49 269.705 202.301 268.769 C 202.033 267.436 202.206 265.267 202.301 263.263 C 202.409 261 202.572 257.321 202.989 255.831 C 203.227 254.984 203.462 254.649 203.884 254.248 C 204.309 253.845 204.946 253.517 205.536 253.422 Z"/>
  <rect style="stroke: rgb(0, 0, 0); fill: rgb(237, 222, 170); stroke-opacity: 0;" x="149.706" y="196.242" width="14.693" height="83.595" rx="15" ry="15" transform="matrix(0.707107, -0.707107, 0.707107, 0.707107, 12.299506, 187.481476)"/>
  <rect style="stroke: rgb(0, 0, 0); fill: rgb(237, 222, 170); stroke-opacity: 0;" x="-337.155" y="-89.249" width="18.957" height="28.954" rx="15" ry="15" transform="matrix(0, 1, -1, 0, 185.94487, 549.640381)"/>
  <path style="stroke: rgb(0, 0, 0); stroke-opacity: 0; fill: rgb(49, 38, 20);" d="M 149.446 262.731 C 147.055 260.851 143.793 261.396 141.496 259.719 C 138.124 257.258 136.953 254.093 134.768 251.076 C 132.898 248.495 130.51 246.498 128.905 244.058 C 127.133 241.367 129.001 236.588 126.447 234 C 123.966 231.488 122.92 229.143 121.173 225.94 C 120.535 224.771 117.837 223.138 116.705 222.614 C 114.785 221.726 113.271 219.279 111.558 217.947 C 108.41 215.499 104.813 213.882 101.348 212.116 C 97.741 210.278 90.082 207.921 86.882 212.068 C 86.528 212.527 85.894 215.449 86.239 215.791 C 86.905 216.451 90.044 215.859 88.94 218.066 C 87.812 220.323 84.654 224.906 85.422 227.168 C 86.277 229.682 88.655 230.477 89.882 232.283 C 90.752 233.564 90.778 234.962 91.412 236.207 C 91.945 237.253 94.019 237.561 94.931 238.009 C 97.868 239.449 101.745 241.02 104.656 242.936 C 105.598 243.556 107.819 246.507 108.286 247.803 C 109.061 249.951 116.596 251.774 118.433 252.675 C 119.102 253.004 119.159 254.659 120.108 255.124 C 122.279 256.189 123.555 256.265 125.589 257.739 C 126.606 258.475 126.635 260.199 127.409 260.709 C 130.292 262.606 134.795 262.185 137.865 263.691 C 139.029 264.262 139.219 266.075 140.747 266.766 C 146.046 269.163 152.103 270.055 157.851 271.472 C 159.453 271.866 164.233 274.199 164.887 273.224 C 166.352 271.04 164.167 267.16 161.782 266.552 C 160.924 266.334 155.035 265.233 155.344 264.924" transform="matrix(0.848048, 0.529919, -0.529919, 0.848048, 147.079026, -29.702451)"/>
  <rect style="stroke: rgb(0, 0, 0); fill: rgb(237, 222, 170); stroke-opacity: 0;" transform="matrix(0.998629, 0.052337, -0.052337, 0.998629, 95.121132, 252.824203)" x="37.439" y="15.022" width="3.674" height="6.399" rx="4.1" ry="4.1"/>
  <rect style="stroke: rgb(0, 0, 0); fill: rgb(237, 222, 170); stroke-opacity: 0;" transform="matrix(0.681998, 0.731354, -0.731354, 0.681998, 121.883812, 235.509705)" x="37.439" y="18.565" width="3.674" height="7.908" rx="4.1" ry="4.1"/>
  <rect style="stroke: rgb(0, 0, 0); fill: rgb(237, 222, 170); stroke-opacity: 0;" transform="matrix(0.681998, 0.731354, -0.731354, 0.681998, 123.985512, 236.890381)" x="37.439" y="18.565" width="3.674" height="7.908" rx="4.1" ry="4.1"/>
  <rect style="stroke: rgb(0, 0, 0); fill: rgb(237, 222, 170); stroke-opacity: 0;" transform="matrix(0.681998, 0.731354, -0.731354, 0.681998, 125.657814, 239.198685)" x="37.439" y="18.565" width="3.674" height="7.908" rx="4.1" ry="4.1"/>
  <rect style="stroke: rgb(0, 0, 0); fill: rgb(237, 222, 170); stroke-opacity: 0;" transform="matrix(0.681998, 0.731354, -0.731354, 0.681998, 133.931015, 255.587692)" x="22.997" y="14.182" width="2.257" height="6.041" rx="4.1" ry="4.1"/>
  <rect style="stroke: rgb(0, 0, 0); fill: rgb(237, 222, 170); stroke-opacity: 0;" transform="matrix(0.809017, 0.587786, -0.587786, 0.809017, 113.362946, 232.614212)" x="37.439" y="15.022" width="3.674" height="6.399" rx="4.1" ry="4.1"/>
  <rect style="stroke: rgb(0, 0, 0); fill: rgb(237, 222, 170); stroke-opacity: 0;" transform="matrix(-0.19081, 0.981627, -0.978765, -0.205536, 366.912262, 233.887863)" x="37.439" y="26.763" width="3.674" height="11.4" rx="4.1" ry="4.1"/>
  <rect style="stroke: rgb(0, 0, 0); fill: rgb(237, 222, 170); stroke-opacity: 0;" transform="matrix(-0.694659, 0.719339, -0.708919, -0.70545, 377.393524, 265.655457)" x="37.439" y="26.763" width="3.674" height="11.4" rx="4.1" ry="4.1"/>
  <rect style="stroke: rgb(0, 0, 0); fill: rgb(237, 222, 170); stroke-opacity: 0;" transform="matrix(-0.75471, 0.656059, -0.644736, -0.764552, 375.773315, 274.665436)" x="37.439" y="26.763" width="3.674" height="11.4" rx="4.1" ry="4.1"/>
  <rect style="stroke: rgb(0, 0, 0); fill: rgb(237, 222, 170); stroke-opacity: 0;" transform="matrix(0.891006, -0.453991, 0.440623, 0.897818, 270.723816, 266.456757)" x="37.439" y="26.763" width="3.674" height="11.4" rx="4.1" ry="4.1"/>
  <rect style="stroke: rgb(0, 0, 0); fill: rgb(237, 222, 170); stroke-opacity: 0;" transform="matrix(0.965926, -0.25882, 0.244328, 0.969809, 268.820007, 255.979538)" x="37.439" y="26.763" width="3.674" height="11.4" rx="4.1" ry="4.1"/>
  <path style="stroke: rgb(0, 0, 0); stroke-opacity: 0; fill: rgb(237, 222, 170);" d="M 322.764 258.133 C 322.764 260.817 323.757 263.548 324.541 266.094 C 324.776 266.858 325.823 268.908 325.368 269.82 C 325.037 270.483 324.858 271.183 324.608 271.902 C 324.148 273.224 325.191 275.177 324.168 276.134 C 323.883 276.401 323.397 276.996 323.142 277.119 C 322.698 277.332 322.068 277.114 321.609 277.413 C 321.096 277.748 320.793 278.606 320.361 279.037 C 320.265 279.133 319.823 279.072 319.686 279.072 C 318.1 279.072 318.694 277.37 317.739 276.741 C 316.93 276.208 315.8 276.762 315.081 277.122 C 314.686 277.32 314.061 276.691 313.801 276.485 C 313.01 275.856 313.663 273.888 312.698 273.591 C 312.301 273.469 311.332 273.463 310.923 273.588 C 310.842 273.612 310.374 273.85 310.272 273.738 C 309.628 273.033 308.947 271.91 308.407 271.362 C 308.193 271.145 308.365 270.381 308.292 270.089 C 307.967 268.779 308.255 267.175 309.078 266.118 C 310.403 264.416 312.407 263.176 313.866 261.714" transform="matrix(0.358368, -0.93358, 0.93358, 0.358368, -47.488269, 468.128225)"/>
  <path style="stroke: rgb(0, 0, 0); stroke-width: 3px;" d="M 260.812 182.364 C 260.217 182.364 259.522 182.266 258.934 182.364 C 257.524 182.597 256.345 183.713 255.255 184.53 C 254.519 185.081 254.112 185.344 253.741 186.23 C 253.674 186.39 253.456 186.908 253.636 187.086 C 254.088 187.534 255.084 187.695 255.661 187.855 C 256.15 187.99 256.729 188.055 257.236 188.078 C 258.944 188.158 260.35 187.944 261.973 187.583 C 262.666 187.428 263.533 187.28 264.12 186.86 C 264.652 186.48 264.803 185.737 265.111 185.194 C 265.617 184.304 266.473 183.877 265.681 182.771 C 265.533 182.564 265.367 182.383 265.128 182.287 C 263.582 181.672 261.969 182.428 260.517 182.428"/>
</svg>